inDegrees=no
num_controls=7
num_derivatives=13
num_iterations=127
num_multipliers=7
num_parameters=0
num_slacks=7
num_states=26
objective=0.427673
objective_accelerations=0.054644
objective_balance=0.007009
objective_effort=0.033298
objective_height=0.331670
objective_ligament=0.001053
solver_duration=1600.088042
status=Solve_Succeeded
success=true
DataType=double
version=3
OpenSimVersion=4.5
endheader
time	/jointset/ground_pelvis/pelvis_tilt/value	/jointset/ground_pelvis/pelvis_tx/value	/jointset/ground_pelvis/pelvis_ty/value	/jointset/hip_l/hip_flexion_l/value	/jointset/hip_l/hip_adduction_l/value	/jointset/hip_l/hip_rotation_l/value	/jointset/back/lumbar_extension/value	/jointset/patellofemoral_l/patellar_flexion_l/value	/jointset/knee_l/knee_flexion_l/value	/jointset/knee_l/knee_adduction_l/value	/jointset/knee_l/knee_rotation_l/value	/jointset/ankle_l/ankle_angle_l/value	/jointset/subtalar_l/subtalar_angle_l/value	/jointset/ground_pelvis/pelvis_tilt/speed	/jointset/ground_pelvis/pelvis_tx/speed	/jointset/ground_pelvis/pelvis_ty/speed	/jointset/hip_l/hip_flexion_l/speed	/jointset/hip_l/hip_adduction_l/speed	/jointset/hip_l/hip_rotation_l/speed	/jointset/back/lumbar_extension/speed	/jointset/patellofemoral_l/patellar_flexion_l/speed	/jointset/knee_l/knee_flexion_l/speed	/jointset/knee_l/knee_adduction_l/speed	/jointset/knee_l/knee_rotation_l/speed	/jointset/ankle_l/ankle_angle_l/speed	/jointset/subtalar_l/subtalar_angle_l/speed	/forceset/tau_hip_flexion_l	/forceset/tau_hip_adduction_l	/forceset/tau_hip_rotation_l	/forceset/tau_knee_flexion_l	/forceset/tau_ankle_angle_l	/forceset/tau_subtalar_angle_l	/forceset/tau_lumbar_extension	lambda_cid13_p0	lambda_cid13_p1	lambda_cid13_p2	lambda_cid13_p3	lambda_cid13_p4	lambda_cid13_p5	lambda_cid14_p0	/jointset/ground_pelvis/pelvis_tilt/accel	/jointset/ground_pelvis/pelvis_tx/accel	/jointset/ground_pelvis/pelvis_ty/accel	/jointset/hip_l/hip_flexion_l/accel	/jointset/hip_l/hip_adduction_l/accel	/jointset/hip_l/hip_rotation_l/accel	/jointset/back/lumbar_extension/accel	/jointset/patellofemoral_l/patellar_flexion_l/accel	/jointset/knee_l/knee_flexion_l/accel	/jointset/knee_l/knee_adduction_l/accel	/jointset/knee_l/knee_rotation_l/accel	/jointset/ankle_l/ankle_angle_l/accel	/jointset/subtalar_l/subtalar_angle_l/accel	gamma_cid13_p0	gamma_cid13_p1	gamma_cid13_p2	gamma_cid13_p3	gamma_cid13_p4	gamma_cid13_p5	gamma_cid14_p0
1.5	-0.3475476839531146	-0.03820869230844581	0.7489447997311548	1.238297932349994	-0.3032907760435418	0.03483638919713743	-0.3458786040712653	0.8812377858258184	0.8812377858257456	-0.1734343841884354	0.1650838141718649	0.1762790403522217	-0.01562874994626649	0.4466141873937321	0.1606915455510267	0.5686619719343832	-2.260215273618007	-0.0354993225434707	-0.7468383310981458	0.5638240363132698	-2.248186728479799	-2.248186728480084	0.008053840187377339	-0.04851110997614543	-0.5657381647608332	-0.1343623057449678	-0.2013375513925902	0.02066907545798174	-0.02585914595971005	-0.2648111106670891	0.1045439802111904	0.03424951987686845	0.1981022437194917	-4.577015150507734	-16.16127390822595	4.559253509158442	-3.475179270784411	-605.8840088825959	-55.13496757687427	-16.44874801294847	0.6054681059199064	0.6254168419676839	-0.4538231234358359	-1.463272983542249	0.7411959684553937	-0.3902616499664385	1.753391919183045	-1.50684359394628	-1.506843593946184	0.06864059344226164	-0.0795303081200608	-0.7050423978689805	0.7885637996112077	4.3935536190117e-07	1.546115261389503e-07	-3.10287230893571e-06	-3.868828950756747e-07	5.606620052801183e-07	-4.407415605728279e-08	4.506049540987744e-07
1.51	-0.3430514354002724	-0.03657061044123612	0.7546075590116684	1.21562485016013	-0.3036097929356943	0.02735213380634964	-0.3401538026298126	0.8586830064481092	0.8586830064484103	-0.173354938045912	0.164594360367713	0.1705868997827535	-0.01693440560426764	0.4525738507359904	0.166909107836405	0.5637706933654185	-2.274095599870097	-0.02828350864159995	-0.7499181558336876	0.5810686361395846	-2.262453592181897	-2.262453592181812	0.007814957226445547	-0.04937359405528892	-0.5725871252785711	-0.1267527329889326	-0.195006068588626	0.02049097933725418	-0.02578297346367036	-0.2614894316412117	0.1057676130369621	0.03422091490956788	0.1928081808562177	-3.92377408677513	-16.37546103498256	4.721596015340425	-3.687055215484022	-601.0614780598438	-55.30993020289414	-17.85026179107324	0.5820026715545338	0.6174915441421157	-0.5245377152394304	-1.304524094673833	0.715306405416652	-0.2522213645148436	1.699851638710375	-1.3393724870196	-1.339372486964114	-0.07326645857419307	-0.08805370208597053	-0.6594289868953486	0.749894436857346	4.72066985504831e-07	2.844203308586678e-07	-3.20292507613667e-06	-3.835595453135963e-07	5.903502058217267e-07	7.469107250007348e-08	4.764759967149507e-07
1.52	-0.3384974327693728	-0.03487083982670879	0.7602178540081698	1.192822142378019	-0.3038559452279554	0.01984000447237331	-0.334258583665226	0.8359950054876436	0.8359950054883223	-0.1732785034765407	0.1640965924739147	0.1648293483864741	-0.0181634174500569	0.4581650030052778	0.1730292950145537	0.5581691151319413	-2.286140392067446	-0.02092640256517998	-0.7524131197359011	0.5979075409400867	-2.27483104503112	-2.274831045030664	0.007451525556982146	-0.05017392790541154	-0.5788203301230749	-0.1190335433025907	-0.1886745857846625	0.02031288321652778	-0.02570680096763695	-0.2581677526153339	0.106991245862734	0.03419230994226875	0.1875141179929429	-3.276174935443505	-16.59023760419456	4.885836699526291	-3.914575969144532	-596.3486256218966	-55.57903502494211	-19.25090328319838	0.5317658913257037	0.6059418205217495	-0.5958830563383247	-1.096166172594164	0.7694544033652359	-0.2732894833007731	1.672252914020498	-1.128961423371297	-1.128961423371311	0.04373085173593978	-0.06710026231588559	-0.5818912632221336	0.810487185672542	5.079390543504212e-07	4.089424106209477e-07	-3.31633331489713e-06	-3.850562096309198e-07	6.27412277395288e-07	1.94697180717386e-07	5.034736636965165e-07
1.53	-0.3338893502834775	-0.03311041683949326	0.7657686571435754	1.169908114573974	-0.3040279752093267	0.01230576897645146	-0.328197235714714	0.8131926839568174	0.8131926839570871	-0.1732063755524049	0.1635911233816091	0.1590125622846544	-0.01931485816819972	0.4633836398061969	0.1790323893527466	0.5518783334263105	-2.296343643128024	-0.0134548120504758	-0.7543458406651099	0.6142783556218764	-2.285300133209442	-2.285300133208988	0.006981311907297454	-0.05091783269230694	-0.5844221969274638	-0.1112323032233972	-0.182249279692948	0.0199352736596176	-0.02555496043274023	-0.2549473445686697	0.1082723799139521	0.03401194828386786	0.1821145356319315	-2.620422508283134	-16.73343284866932	5.030551749697893	-4.089258851397786	-591.7052743046318	-55.7745625844292	-20.64657531552176	0.5067813928154354	0.5939772356821638	-0.6625132371604469	-0.934111244725953	0.7401936713749768	-0.139549788026931	1.606941714197398	-0.9560226788580248	-0.956022678858111	-0.09135059870027809	-0.0770341434469171	-0.5321520962917194	0.7686049203243784	5.471690962655611e-07	5.2784734511595e-07	-3.443931742189558e-06	-3.916741389076078e-07	6.723090869402991e-07	3.160217235734019e-07	5.316683690663087e-07
1.54	-0.3292311076659051	-0.03129066610985298	0.7712531849600279	1.146901712924937	-0.3041244528263807	0.004754948993178789	-0.3219746904235964	0.7902956435114489	0.79029564351131	-0.1731387403898418	0.1630784155301208	0.153143193973342	-0.02038755398529428	0.4681970293407332	0.1848948434995059	0.5449140513412722	-2.304615161066054	-0.005815929701693311	-0.7557300172061582	0.6301470090612338	-2.293774827939576	-2.293774827939122	0.006552973242428784	-0.05162167974202441	-0.5893367720216313	-0.1032845630929385	-0.1758239736012336	0.0195576641027095	-0.02540311989784553	-0.2517269365220053	0.1095535139651708	0.03383158662546949	0.1767149532709196	-1.969257130063172	-16.87818134162437	5.178208653347232	-4.286401427110424	-587.1612267317099	-56.07197631595088	-22.03407129470216	0.4507164380491485	0.5778137822350228	-0.7305831322198196	-0.7098195480844791	0.8029127701808982	-0.1635806056686286	1.57182066553404	-0.7300827337335342	-0.7300827337334982	0.05210584869914429	-0.05908871488029745	-0.4444329211778732	0.8397871959255773	6.056729839908903e-07	6.275292389110915e-07	-3.686775277932903e-06	-4.165510312217181e-07	7.381122522805268e-07	4.456720016732138e-07	5.744590187929924e-07
